# Blender 5.1.2
# www.blender.org
mtllib KEYCHELDETENATORNEW2.mtl
o KeychelDetnator
v -0.034436 -0.263506 -0.000043
v -0.051636 -0.283216 -0.058963
v -0.051636 -0.283216 0.058878
v -0.086035 -0.188456 -0.058963
v -0.086035 -0.188456 0.058878
v -0.061633 -0.188456 -0.000043
v -0.034436 -0.113409 -0.000043
v -0.051636 -0.093697 -0.058963
v -0.051636 -0.093697 0.058878
v 0.148767 -0.323826 0.058878
v 0.148767 -0.323826 -0.058963
v 0.169971 -0.348524 -0.000043
v 0.227966 -0.188456 -0.000043
v 0.197571 -0.188456 -0.058963
v 0.197571 -0.188456 0.058878
v 0.148767 -0.053087 -0.058963
v 0.148767 -0.053087 0.058878
v 0.169971 -0.028388 -0.000043
v 0.100366 0.004763 -0.000043
v 0.089563 -0.025050 -0.058963
v 0.089563 -0.025050 0.058878
v 0.089563 0.046591 -0.058963
v 0.089563 0.046591 0.058878
v 0.100366 0.046591 -0.000043
v 0.089563 0.140799 -0.058963
v 0.100366 0.140799 -0.000043
v 0.089563 0.140799 0.058878
v 0.089563 0.214331 -0.058963
v 0.100366 0.214331 -0.000043
v 0.089563 0.214331 0.058878
v 0.089563 0.296723 -0.058963
v 0.089563 0.296723 0.058878
v 0.100366 0.326539 -0.000043
v -0.028040 0.046591 -0.058963
v -0.028040 0.046591 0.058878
v -0.038831 0.027103 -0.000043
v -0.077234 0.046591 -0.058963
v -0.077234 0.046591 0.058878
v -0.088037 0.027103 -0.000043
v -0.120837 0.070371 -0.058963
v -0.120837 0.070371 0.058878
v -0.131628 0.050883 -0.000043
v -0.028040 0.214331 -0.058963
v -0.038831 0.196791 -0.000043
v -0.077234 0.214331 -0.058963
v -0.088037 0.196791 -0.000043
v -0.116834 0.237415 -0.058963
v -0.127637 0.211039 -0.000043
v -0.116834 0.237415 0.058878
v -0.077234 0.214331 0.058878
v -0.028040 0.214331 0.058878
v 0.095972 -0.113409 -0.000043
v 0.113171 -0.093697 -0.058963
v 0.071960 -0.074072 -0.058963
v 0.113171 -0.093697 0.058878
v 0.071960 -0.074072 0.058878
v 0.063562 -0.097864 -0.000043
v 0.030762 -0.054447 0.058878
v 0.030762 -0.054447 -0.058963
v 0.030762 -0.082321 -0.000043
v -0.002039 -0.097864 -0.000043
v -0.010437 -0.074072 0.058878
v -0.010437 -0.074072 -0.058963
v -0.034436 -0.113409 -0.000043
v -0.051636 -0.093697 -0.058963
v -0.051636 -0.093697 0.058878
v -0.087231 -0.323826 0.058878
v 0.030762 -0.414829 -0.000043
v 0.030762 -0.379896 0.058878
v 0.148767 -0.323826 0.058878
v -0.108435 -0.348524 -0.000043
v -0.087231 -0.323826 -0.058963
v 0.030762 -0.379896 -0.058963
v 0.148767 -0.323826 -0.058963
v 0.169971 -0.348524 -0.000043
v 0.113171 -0.093697 -0.058963
v 0.089563 -0.025050 -0.058963
v 0.148767 -0.053087 -0.058963
v 0.071960 -0.074072 -0.058963
v 0.147571 -0.188456 -0.058963
v 0.197571 -0.188456 -0.058963
v 0.148767 -0.323826 -0.058963
v 0.113171 -0.283216 -0.058963
v 0.030762 -0.379896 -0.058963
v 0.030762 -0.322466 -0.058963
v -0.051636 -0.283216 -0.058963
v -0.087231 -0.323826 -0.058963
v -0.136035 -0.188456 -0.058963
v -0.086035 -0.188456 -0.058963
v -0.051636 -0.093697 -0.058963
v -0.087231 -0.053087 -0.058963
v -0.028040 -0.025050 -0.058963
v -0.010437 -0.074072 -0.058963
v 0.030762 -0.054447 -0.058963
v 0.030762 0.002983 -0.058963
v -0.028040 0.046591 -0.058963
v 0.089563 0.046591 -0.058963
v 0.030762 0.046591 -0.058963
v -0.028040 0.140799 -0.058963
v 0.030762 0.140799 -0.058963
v 0.089563 0.140799 -0.058963
v -0.077234 0.046591 -0.058963
v 0.030762 0.214331 -0.058963
v 0.089563 0.214331 -0.058963
v 0.089563 0.296723 -0.058963
v 0.030762 0.324759 -0.058963
v -0.028040 0.296723 -0.058963
v -0.028040 0.214331 -0.058963
v -0.077234 0.214331 -0.058963
v -0.077234 0.296723 -0.058963
v -0.116834 0.237415 -0.058963
v -0.116834 0.278611 -0.058963
v -0.077234 0.140799 -0.058963
v -0.120837 0.070371 -0.058963
v -0.120837 0.117019 -0.058963
v -0.131628 0.050883 -0.000043
v -0.120837 0.117019 0.058878
v -0.131628 0.143571 -0.000043
v -0.120837 0.070371 0.058878
v -0.120837 0.117019 -0.058963
v -0.120837 0.070371 -0.058963
v -0.127637 0.293519 -0.000043
v -0.116834 0.237415 0.058878
v -0.116834 0.278611 0.058878
v -0.127637 0.211039 -0.000043
v -0.116834 0.237415 -0.058963
v -0.116834 0.278611 -0.058963
v -0.038831 0.004763 -0.000043
v -0.087231 -0.053087 -0.058963
v -0.108435 -0.028388 -0.000043
v -0.028040 -0.025050 -0.058963
v -0.087231 -0.053087 0.058878
v -0.028040 -0.025050 0.058878
v -0.028040 0.046591 -0.058963
v -0.028040 0.046591 0.058878
v -0.038831 0.027103 -0.000043
v -0.028040 0.140799 -0.058963
v -0.028040 0.214331 -0.058963
v -0.038831 0.196791 -0.000043
v -0.038831 0.158247 -0.000043
v -0.028040 0.214331 0.058878
v -0.028040 0.140799 0.058878
v 0.123169 -0.188456 -0.000043
v 0.147571 -0.188456 -0.058963
v 0.095972 -0.263506 -0.000043
v 0.113171 -0.283216 -0.058963
v 0.095972 -0.113409 -0.000043
v 0.113171 -0.093697 -0.058963
v 0.147571 -0.188456 0.058878
v 0.113171 -0.093697 0.058878
v 0.113171 -0.283216 0.058878
v -0.087231 -0.323826 0.058878
v -0.108435 -0.348524 -0.000043
v -0.166431 -0.188456 -0.000043
v -0.136035 -0.188456 0.058878
v -0.087231 -0.323826 -0.058963
v -0.136035 -0.188456 -0.058963
v -0.038831 0.004763 -0.000043
v -0.087231 -0.053087 -0.058963
v -0.108435 -0.028388 -0.000043
v -0.028040 -0.025050 -0.058963
v -0.087231 -0.053087 0.058878
v -0.028040 -0.025050 0.058878
v -0.028040 0.140799 -0.058963
v -0.038831 0.158247 -0.000043
v -0.077234 0.140799 -0.058963
v -0.028040 0.140799 0.058878
v -0.077234 0.140799 0.058878
v -0.088037 0.158247 -0.000043
v -0.120837 0.117019 0.058878
v -0.120837 0.117019 -0.058963
v -0.131628 0.143571 -0.000043
v 0.095972 -0.263506 -0.000043
v 0.113171 -0.283216 -0.058963
v 0.030762 -0.322466 -0.058963
v 0.113171 -0.283216 0.058878
v 0.030762 -0.322466 0.058878
v 0.030762 -0.294591 -0.000043
v -0.034436 -0.263506 -0.000043
v -0.051636 -0.283216 -0.058963
v -0.051636 -0.283216 0.058878
v 0.148767 -0.053087 -0.058963
v 0.148767 -0.053087 0.058878
v 0.169971 -0.028388 -0.000043
v 0.100366 0.004763 -0.000043
v 0.089563 -0.025050 -0.058963
v 0.089563 -0.025050 0.058878
v 0.089563 0.296723 -0.058963
v 0.089563 0.296723 0.058878
v 0.100366 0.326539 -0.000043
v 0.030762 0.359691 -0.000043
v 0.030762 0.324759 -0.058963
v 0.030762 0.324759 0.058878
v -0.028040 0.296723 -0.058963
v -0.028040 0.296723 0.058878
v -0.038831 0.326539 -0.000043
v -0.077234 0.296723 -0.058963
v -0.077234 0.296723 0.058878
v -0.088037 0.326539 -0.000043
v -0.116834 0.278611 -0.058963
v -0.116834 0.278611 0.058878
v -0.127637 0.293519 -0.000043
v 0.030762 0.214331 0.058878
v -0.028040 0.296723 0.058878
v -0.028040 0.214331 0.058878
v -0.077234 0.296723 0.058878
v 0.030762 0.324759 0.058878
v -0.077234 0.214331 0.058878
v -0.116834 0.237415 0.058878
v -0.116834 0.278611 0.058878
v 0.089563 0.296723 0.058878
v -0.028040 0.140799 0.058878
v 0.089563 0.214331 0.058878
v 0.030762 0.140799 0.058878
v 0.089563 0.140799 0.058878
v -0.028040 0.046591 0.058878
v 0.030762 0.046591 0.058878
v 0.089563 0.046591 0.058878
v -0.077234 0.140799 0.058878
v 0.030762 0.002983 0.058878
v -0.077234 0.046591 0.058878
v -0.120837 0.070371 0.058878
v -0.120837 0.117019 0.058878
v -0.028040 -0.025050 0.058878
v 0.089563 -0.025050 0.058878
v 0.030762 -0.054447 0.058878
v -0.010437 -0.074072 0.058878
v 0.071960 -0.074072 0.058878
v -0.051636 -0.093697 0.058878
v 0.113171 -0.093697 0.058878
v -0.087231 -0.053087 0.058878
v 0.148767 -0.053087 0.058878
v -0.136035 -0.188456 0.058878
v 0.147571 -0.188456 0.058878
v -0.086035 -0.188456 0.058878
v 0.197571 -0.188456 0.058878
v -0.051636 -0.283216 0.058878
v 0.148767 -0.323826 0.058878
v -0.087231 -0.323826 0.058878
v 0.113171 -0.283216 0.058878
v 0.030762 -0.379896 0.058878
v 0.030762 -0.322466 0.058878
vn 0.9252 -0.0000 -0.3796
vn 0.7565 0.6540 -0.0000
vn 0.6931 0.5985 -0.4016
vn 0.9252 -0.0000 0.3795
vn 0.6931 0.5986 0.4017
vn 1.0000 -0.0000 -0.0000
vn 0.7565 -0.6540 -0.0000
vn 0.6931 -0.5986 -0.4017
vn 0.6931 -0.5986 0.4017
vn 0.6619 -0.5752 -0.4806
vn 0.6619 -0.5752 0.4807
vn 0.8896 -0.0000 -0.4567
vn 0.8896 -0.0000 0.4567
vn 0.6619 0.5752 -0.4807
vn 0.6619 0.5752 0.4807
vn 0.9052 0.4250 -0.0000
vn 0.7613 0.5102 -0.4002
vn 0.9835 -0.0000 -0.1808
vn 0.9835 -0.0000 0.1808
vn 0.7613 0.5101 0.4003
vn 0.9835 -0.0000 -0.1809
vn 0.8488 0.3929 -0.3537
vn 0.8488 0.3930 0.3537
vn 0.8284 0.5602 -0.0000
vn -0.7778 -0.6285 -0.0000
vn -0.2208 -0.9145 -0.3390
vn -0.6924 -0.6373 -0.3383
vn -0.2208 -0.9145 0.3390
vn -0.6924 -0.6373 0.3383
vn -0.2685 -0.9633 -0.0000
vn -0.4494 -0.8199 -0.3548
vn -0.4494 -0.8199 0.3548
vn -0.4784 -0.8781 -0.0000
vn -0.7708 -0.6370 -0.0000
vn -0.1891 -0.9217 -0.3387
vn -0.2207 -0.2049 -0.9536
vn -0.2369 -0.9715 -0.0000
vn -0.3936 -0.8344 -0.3857
vn -0.4250 -0.9052 -0.0000
vn -0.3936 -0.8344 0.3857
vn -0.1891 -0.9217 0.3387
vn -0.7018 -0.6387 0.3154
vn -0.7564 -0.6541 -0.0000
vn -0.3950 -0.8295 -0.3950
vn -0.6931 -0.5986 -0.4017
vn -0.3950 -0.8294 0.3950
vn -0.6931 -0.5986 0.4016
vn -0.4314 -0.9022 -0.0000
vn -0.0000 -0.9052 0.4251
vn -0.0000 -0.9052 -0.4250
vn -0.0001 -1.0000 -0.0000
vn 0.4313 -0.9022 -0.0000
vn 0.3950 -0.8295 0.3950
vn 0.3950 -0.8294 -0.3950
vn -0.6619 -0.5752 0.4807
vn -0.0000 -1.0000 -0.0000
vn -0.0000 -0.8589 0.5122
vn 0.6619 -0.5752 0.4806
vn -0.6619 -0.5753 -0.4807
vn -0.0000 -0.8589 -0.5122
vn 0.6619 -0.5752 -0.4807
vn 0.7564 -0.6541 -0.0000
vn -0.0000 -0.0000 -1.0000
vn -0.2207 0.2049 -0.9536
vn -0.2206 -0.2049 -0.9536
vn -1.0000 -0.0000 -0.0000
vn -0.9835 -0.0000 0.1809
vn -0.9835 -0.0000 -0.1809
vn -0.9835 -0.0000 -0.1808
vn -0.9835 -0.0000 0.1808
vn -0.9052 0.4250 -0.0000
vn -0.6923 -0.6373 -0.3383
vn -0.7613 0.5102 -0.4003
vn -0.6923 -0.6373 0.3383
vn -0.7613 0.5101 0.4003
vn -0.7778 -0.6285 0.0001
vn -0.7708 -0.6371 -0.0000
vn -0.7708 0.6371 -0.0000
vn -0.7018 0.6388 0.3154
vn -0.7018 -0.6388 0.3155
vn -0.9252 -0.0000 -0.3796
vn -0.7565 0.6540 -0.0000
vn -0.6931 0.5985 -0.4017
vn -0.7565 -0.6540 -0.0000
vn -0.6931 -0.5985 -0.4017
vn -0.9252 -0.0000 0.3796
vn -0.6931 -0.5985 0.4017
vn -0.6931 0.5985 0.4017
vn -0.6619 -0.5752 0.4806
vn -0.8896 -0.0000 0.4567
vn -0.6619 -0.5752 -0.4807
vn -0.8896 -0.0000 -0.4567
vn -0.6619 0.5752 0.4807
vn -0.6619 0.5752 -0.4807
vn -0.7613 0.5101 -0.4003
vn -0.7613 0.5102 0.4003
vn -0.1815 0.9230 -0.3392
vn -0.1815 0.9230 0.3392
vn -0.7018 0.6387 0.3154
vn -0.2202 0.9754 -0.0000
vn -0.3709 0.8444 0.3867
vn -0.3709 0.8444 -0.3866
vn -0.4025 0.9154 -0.0000
vn -0.0000 0.9052 -0.4250
vn -0.7564 0.6541 -0.0000
vn -0.6931 0.5986 -0.4016
vn -0.6931 0.5986 0.4017
vn -0.0000 0.9052 0.4250
vn -0.0000 1.0000 -0.0000
vn 0.6931 0.5986 -0.4017
vn 0.6619 0.5753 -0.4806
vn 0.7564 0.6541 -0.0000
vn 0.6619 0.5753 0.4806
vn 0.7613 0.5101 -0.4003
vn 0.8284 0.5601 -0.0000
vn -0.0000 0.8589 -0.5122
vn -0.0000 0.8589 0.5122
vn -0.2046 0.8575 -0.4720
vn -0.2046 0.8575 0.4720
vn -0.2127 0.9771 -0.0000
vn -0.2518 0.8656 -0.4328
vn -0.2518 0.8656 0.4328
vn -0.2993 0.9541 -0.0000
vn -0.4954 0.7785 -0.3853
vn -0.4954 0.7785 0.3853
vn -0.5420 0.8404 -0.0000
vn -0.0000 -0.0000 1.0000
vt -0.509521 1.452160
vt -0.491115 1.475610
vt -0.509521 1.481770
vt -0.472708 1.452160
vt -0.472708 1.481770
vt -0.491115 1.452160
vt -0.491115 1.428710
vt -0.509521 1.422550
vt -0.472708 1.422550
vt -0.509521 1.494460
vt -0.491115 1.502180
vt -0.472708 1.494460
vt -0.509521 1.409860
vt -0.472708 1.409860
vt -0.491115 1.402140
vt -0.491115 1.391780
vt -0.509521 1.401090
vt -0.509521 1.378710
vt -0.472708 1.378710
vt -0.472708 1.401090
vt -0.491115 1.378710
vt -0.509521 1.349270
vt -0.491115 1.349270
vt -0.472708 1.349270
vt -0.509521 1.326290
vt -0.491115 1.326290
vt -0.472708 1.326290
vt -0.509521 1.300540
vt -0.472708 1.300540
vt -0.491115 1.291220
vt -0.469341 1.401880
vt -0.457364 1.420290
vt -0.472701 1.420290
vt -0.457364 1.383480
vt -0.472701 1.383480
vt -0.454004 1.401880
vt -0.443681 1.420290
vt -0.443681 1.383480
vt -0.440321 1.401880
vt -0.444921 1.420290
vt -0.441562 1.401880
vt -0.444921 1.383480
vt -0.511533 1.401880
vt -0.504005 1.420290
vt -0.516895 1.420290
vt -0.504005 1.383480
vt -0.516895 1.383480
vt -0.501324 1.401880
vt -0.491115 1.383480
vt -0.491115 1.420290
vt -0.491115 1.401880
vt -0.480907 1.401880
vt -0.478225 1.383480
vt -0.478225 1.420290
vt -0.470697 1.401880
vt -0.465335 1.420290
vt -0.465335 1.383480
vt -0.454287 1.383480
vt -0.527944 1.383480
vt -0.447567 1.401880
vt -0.454287 1.420290
vt -0.527944 1.420290
vt -0.534663 1.401880
vt -0.465335 1.422550
vt -0.472701 1.401090
vt -0.454286 1.409860
vt -0.478225 1.416410
vt -0.454657 1.452160
vt -0.439032 1.452160
vt -0.454286 1.494460
vt -0.465335 1.481770
vt -0.491115 1.511980
vt -0.491115 1.494040
vt -0.516895 1.481770
vt -0.527943 1.494460
vt -0.543198 1.452160
vt -0.527573 1.452160
vt -0.516895 1.422550
vt -0.527943 1.409860
vt -0.509529 1.401090
vt -0.504005 1.416410
vt -0.491115 1.410280
vt -0.491115 1.392330
vt -0.509529 1.378710
vt -0.472701 1.378710
vt -0.509529 1.349270
vt -0.472701 1.349270
vt -0.524866 1.378710
vt -0.472701 1.326290
vt -0.472701 1.300540
vt -0.491115 1.291780
vt -0.509529 1.300540
vt -0.509529 1.326290
vt -0.524866 1.326290
vt -0.524866 1.300540
vt -0.537309 1.319070
vt -0.537309 1.306200
vt -0.524866 1.349270
vt -0.538549 1.371280
vt -0.538549 1.356700
vt -0.491115 1.377370
vt -0.509521 1.356700
vt -0.491115 1.348400
vt -0.509521 1.371280
vt -0.472708 1.356700
vt -0.472708 1.371280
vt -0.491115 1.301540
vt -0.509521 1.319070
vt -0.509521 1.306200
vt -0.491115 1.327320
vt -0.472708 1.319070
vt -0.472708 1.306200
vt -0.491115 1.384800
vt -0.491115 1.331770
vt -0.491115 1.343810
vt -0.512889 1.401880
vt -0.527943 1.420290
vt -0.509529 1.420290
vt -0.527943 1.383480
vt -0.509529 1.383480
vt -0.524866 1.420290
vt -0.524866 1.383480
vt -0.528226 1.401880
vt -0.538549 1.383480
vt -0.538549 1.420290
vt -0.541909 1.401880
vt -0.454286 1.420290
vt -0.454286 1.383480
vt -0.537309 1.420290
vt -0.537309 1.383480
vt -0.540668 1.401880
vt -0.457364 1.300540
vt -0.457364 1.326290
vt -0.444921 1.319070
vt -0.444921 1.306200
vt -0.457364 1.349270
vt -0.457364 1.378710
vt -0.443681 1.371280
vt -0.443681 1.356700
vt -0.454287 1.409860
vt -0.527944 1.409860
vt -0.527944 1.494460
vt -0.454287 1.494460
s 1
usemtl Sphere1Mtl.001
f 4/1/1 1/2/2 2/3/3
f 1/2/2 5/4/4 3/5/5
f 1/2/2 4/1/1 6/6/6
f 5/4/4 1/2/2 6/6/6
f 6/6/6 4/1/1 7/7/7
f 7/7/7 5/4/4 6/6/6
f 7/7/7 4/1/1 8/8/8
f 5/4/4 7/7/7 9/9/9
f 11/10/10 13/6/6 12/11/7
f 13/6/6 10/12/11 12/11/7
f 13/6/6 11/10/10 14/1/12
f 10/12/11 13/6/6 15/4/13
f 16/13/14 13/6/6 14/1/12
f 13/6/6 17/14/15 15/4/13
f 13/6/6 16/13/14 18/15/2
f 17/14/15 13/6/6 18/15/2
f 19/16/16 20/17/17 22/18/18
f 19/16/16 23/19/19 21/20/20
f 22/18/18 24/21/6 19/16/16
f 23/19/19 19/16/16 24/21/6
f 24/21/6 22/18/18 25/22/21
f 23/19/19 24/21/6 26/23/6
f 26/23/6 24/21/6 25/22/21
f 27/24/19 23/19/19 26/23/6
f 26/23/6 25/22/21 28/25/18
f 27/24/19 26/23/6 29/26/6
f 29/26/6 26/23/6 28/25/18
f 30/27/19 27/24/19 29/26/6
f 29/26/6 28/25/18 31/28/22
f 29/26/6 32/29/23 30/27/19
f 33/30/24 29/26/6 31/28/22
f 32/29/23 29/26/6 33/30/24
f 36/31/25 37/32/26 34/33/27
f 38/34/28 36/31/25 35/35/29
f 37/32/26 36/31/25 39/36/30
f 36/31/25 38/34/28 39/36/30
f 39/36/30 40/37/31 37/32/26
f 41/38/32 39/36/30 38/34/28
f 40/37/31 39/36/30 42/39/33
f 39/36/30 41/38/32 42/39/33
f 44/31/34 45/32/35 43/33/36
f 45/32/35 44/31/34 46/36/37
f 46/36/37 47/40/38 45/32/35
f 47/40/38 46/36/37 48/41/39
f 46/36/37 49/42/40 48/41/39
f 49/42/40 46/36/37 50/34/41
f 44/31/34 50/34/41 46/36/37
f 50/34/41 44/31/34 51/35/42
f 52/43/43 54/44/44 53/45/45
f 56/46/46 52/43/43 55/47/47
f 52/43/43 56/46/46 57/48/48
f 57/48/48 54/44/44 52/43/43
f 58/49/49 57/48/48 56/46/46
f 57/48/48 59/50/50 54/44/44
f 57/48/48 58/49/49 60/51/51
f 60/51/51 59/50/50 57/48/48
f 58/49/49 61/52/52 60/51/51
f 61/52/52 59/50/50 60/51/51
f 61/52/52 58/49/49 62/53/53
f 59/50/50 61/52/52 63/54/54
f 63/54/54 64/55/7 65/56/8
f 64/55/7 63/54/54 61/52/52
f 62/53/53 64/55/7 61/52/52
f 66/57/9 64/55/7 62/53/53
f 67/58/55 68/51/56 69/49/57
f 68/51/56 70/59/58 69/49/57
f 68/51/56 67/58/55 71/60/43
f 72/61/59 68/51/56 71/60/43
f 68/51/56 72/61/59 73/50/60
f 74/62/61 68/51/56 73/50/60
f 68/51/56 74/62/61 75/63/62
f 70/59/58 68/51/56 75/63/62
f 76/64/63 77/65/63 78/66/63
f 77/65/63 76/64/63 79/67/63
f 78/66/63 80/68/63 76/64/63
f 78/66/63 81/69/63 80/68/63
f 82/70/63 80/68/63 81/69/63
f 80/68/63 82/70/63 83/71/63
f 84/72/63 83/71/63 82/70/63
f 83/71/63 84/72/63 85/73/63
f 86/74/63 85/73/63 84/72/63
f 84/72/63 87/75/63 86/74/63
f 88/76/63 86/74/63 87/75/63
f 86/74/63 88/76/63 89/77/63
f 88/76/63 90/78/63 89/77/63
f 88/76/63 91/79/63 90/78/63
f 92/80/63 90/78/63 91/79/63
f 90/78/63 92/80/63 93/81/63
f 93/81/63 92/80/63 94/82/63
f 92/80/63 95/83/63 94/82/63
f 96/84/63 95/83/63 92/80/63
f 77/65/63 94/82/63 95/83/63
f 94/82/63 77/65/63 79/67/63
f 95/83/63 97/85/63 77/65/63
f 96/84/63 98/21/63 95/83/63
f 97/85/63 95/83/63 98/21/63
f 99/86/64 98/21/63 96/84/63
f 100/23/63 97/85/63 98/21/63
f 99/86/64 100/23/63 98/21/63
f 100/23/63 101/87/63 97/85/63
f 99/86/64 96/84/63 102/88/63
f 103/26/63 101/87/63 100/23/63
f 103/26/63 104/89/63 101/87/63
f 103/26/63 105/90/63 104/89/63
f 105/90/63 103/26/63 106/91/63
f 107/92/63 106/91/63 103/26/63
f 108/93/65 103/26/63 100/23/63
f 107/92/63 103/26/63 108/93/65
f 108/93/65 100/23/63 99/86/64
f 107/92/63 108/93/65 109/94/63
f 110/95/63 107/92/63 109/94/63
f 110/95/63 109/94/63 111/96/63
f 112/97/63 110/95/63 111/96/63
f 113/98/63 99/86/64 102/88/63
f 113/98/63 102/88/63 114/99/63
f 115/100/63 113/98/63 114/99/63
f 116/101/66 117/102/67 118/103/66
f 117/102/67 116/101/66 119/104/67
f 120/105/68 116/101/66 118/103/66
f 116/101/66 120/105/68 121/106/69
f 122/107/66 123/108/70 124/109/70
f 123/108/70 122/107/66 125/110/66
f 122/107/66 126/111/69 125/110/66
f 126/111/69 122/107/66 127/112/68
f 128/16/71 134/19/72 131/20/73
f 135/18/74 128/16/71 133/17/75
f 134/19/72 128/16/71 136/113/76
f 128/16/71 135/18/74 136/113/76
f 137/24/64 139/114/77 138/27/36
f 139/114/77 137/24/64 140/115/78
f 139/114/77 142/22/79 141/25/80
f 142/22/79 139/114/77 140/115/78
f 143/6/66 144/4/81 145/2/82
f 145/2/82 144/4/81 146/5/83
f 147/7/84 144/4/81 143/6/66
f 144/4/81 147/7/84 148/9/85
f 149/1/86 147/7/84 143/6/66
f 145/2/82 149/1/86 143/6/66
f 150/8/87 147/7/84 149/1/86
f 149/1/86 145/2/82 151/3/88
f 152/10/89 154/6/66 153/11/84
f 154/6/66 152/10/89 155/1/90
f 154/6/66 156/12/91 153/11/84
f 156/12/91 154/6/66 157/4/92
f 132/13/93 154/6/66 155/1/90
f 154/6/66 129/14/94 157/4/92
f 154/6/66 132/13/93 130/15/82
f 129/14/94 154/6/66 130/15/82
f 158/116/71 159/117/94 160/63/82
f 159/117/94 158/116/71 161/118/95
f 162/119/93 158/116/71 160/63/82
f 158/116/71 162/119/93 163/120/96
f 165/116/78 164/118/64 166/121/97
f 165/116/78 168/122/98 167/120/99
f 168/122/98 165/116/78 169/123/100
f 169/123/100 165/116/78 166/121/97
f 169/123/100 170/124/101 168/122/98
f 169/123/100 166/121/97 171/125/102
f 170/124/101 169/123/100 172/126/103
f 171/125/102 172/126/103 169/123/100
f 175/50/104 173/55/105 174/56/106
f 176/57/107 173/55/105 177/49/108
f 177/49/108 173/55/105 178/51/109
f 173/55/105 175/50/104 178/51/109
f 178/51/109 175/50/104 179/43/2
f 179/43/2 177/49/108 178/51/109
f 179/43/2 175/50/104 180/45/110
f 177/49/108 179/43/2 181/47/5
f 182/127/111 185/31/16 184/60/112
f 185/31/16 183/128/113 184/60/112
f 185/31/16 182/127/111 186/33/114
f 183/128/113 185/31/16 187/35/20
f 188/33/22 191/51/109 190/31/115
f 191/51/109 189/35/23 190/31/115
f 191/51/109 188/33/22 192/50/116
f 189/35/23 191/51/109 193/49/117
f 194/118/118 191/51/109 192/50/116
f 191/51/109 195/120/119 193/49/117
f 191/51/109 194/118/118 196/116/120
f 195/120/119 191/51/109 196/116/120
f 196/116/120 194/118/118 197/121/121
f 196/116/120 198/122/122 195/120/119
f 199/123/123 196/116/120 197/121/121
f 198/122/122 196/116/120 199/123/123
f 199/123/123 197/121/121 200/129/124
f 199/123/123 201/130/125 198/122/122
f 200/129/124 202/131/126 199/123/123
f 201/130/125 199/123/123 202/131/126
f 203/26/127 204/90/127 205/89/127
f 205/89/127 204/90/127 206/132/127
f 204/90/127 203/26/127 207/91/127
f 208/133/127 205/89/127 206/132/127
f 206/132/127 209/134/127 208/133/127
f 209/134/127 206/132/127 210/135/127
f 207/91/127 203/26/127 211/92/127
f 212/87/127 203/26/127 205/89/127
f 213/93/127 211/92/127 203/26/127
f 214/23/127 213/93/127 203/26/127
f 203/26/127 212/87/127 214/23/127
f 215/86/127 213/93/127 214/23/127
f 216/85/127 214/23/127 212/87/127
f 217/21/127 215/86/127 214/23/127
f 214/23/127 216/85/127 217/21/127
f 218/84/127 215/86/127 217/21/127
f 216/85/127 212/87/127 219/136/127
f 220/83/127 218/84/127 217/21/127
f 216/85/127 220/83/127 217/21/127
f 221/137/127 216/85/127 219/136/127
f 219/136/127 222/138/127 221/137/127
f 222/138/127 219/136/127 223/139/127
f 220/83/127 216/85/127 224/65/127
f 225/80/127 218/84/127 220/83/127
f 224/65/127 226/82/127 220/83/127
f 226/82/127 225/80/127 220/83/127
f 226/82/127 224/65/127 227/67/127
f 225/80/127 226/82/127 228/81/127
f 227/67/127 224/65/127 229/64/127
f 230/78/127 225/80/127 228/81/127
f 224/65/127 231/140/127 229/64/127
f 225/80/127 230/78/127 232/141/127
f 233/69/127 229/64/127 231/140/127
f 234/77/127 232/141/127 230/78/127
f 229/64/127 233/69/127 235/68/127
f 232/141/127 234/77/127 236/76/127
f 233/69/127 237/71/127 235/68/127
f 238/142/127 236/76/127 234/77/127
f 233/69/127 239/143/127 237/71/127
f 238/142/127 234/77/127 240/74/127
f 241/72/127 237/71/127 239/143/127
f 240/74/127 241/72/127 238/142/127
f 237/71/127 241/72/127 242/73/127
f 241/72/127 240/74/127 242/73/127
